<?xml version="1.0" encoding="utf-8"?>
<!-- Generator: Adobe Illustrator 19.2.1, SVG Export Plug-In . SVG Version: 6.00 Build 0)  -->
<svg version="1.1" id="Layer_1" xmlns="http://www.w3.org/2000/svg" xmlns:xlink="http://www.w3.org/1999/xlink" x="0px" y="0px"
	 viewBox="0 0 201 417" style="enable-background:new 0 0 201 417;" xml:space="preserve">
<style type="text/css">
	.st0{fill-rule:evenodd;clip-rule:evenodd;fill:#F40F0F;}
</style>
<g>
	<g>
		<path class="st0" d="M156.2,217.8c16.2-5.8,29.5-23,29.5-46.8c0-39.6-27.7-60.1-73.8-60.1H97L17.2,261v71h101.5
			c46.1,0,73.4-22,73.4-61.9C192.2,245.2,177.1,224.7,156.2,217.8z M72.3,158.4h33.1c16.9,0,25.9,6.1,25.9,19.8s-9,20.2-25.9,20.2
			H72.3V158.4z M111.2,284.4H72.3v-42.8h38.9c16.2,0,25.2,8.3,25.2,21.6C136.4,275.8,127.4,284.4,111.2,284.4z"/>
	</g>
</g>
</svg>
