<?xml version="1.0" encoding="utf-8"?>
<!-- Generator: Adobe Illustrator 19.2.1, SVG Export Plug-In . SVG Version: 6.00 Build 0)  -->
<svg version="1.1" id="Layer_1" xmlns="http://www.w3.org/2000/svg" xmlns:xlink="http://www.w3.org/1999/xlink" x="0px" y="0px"
	 viewBox="0 0 224 417" style="enable-background:new 0 0 224 417;" xml:space="preserve">
<style type="text/css">
	.st0{fill-rule:evenodd;clip-rule:evenodd;fill:#F40F0F;}
</style>
<g>
	<g>
		<path class="st0" d="M115.9,158.1c20.9,0,32.8,10.1,38.9,27h59c-8.3-45-41-77.8-97.9-77.8c-0.4,0-0.8,0-1.2,0l-37.9,71.4
			C85.4,165.8,98.7,158.1,115.9,158.1z M124.2,213.9v43.2h34.2c-5.4,16.9-19.8,27.7-41.8,27.7c-31.7,0-51.1-25.6-51.1-63.4
			c0-12.3,2.1-23.4,6-32.8L21.9,282c18.3,33.2,52.5,53.6,94.8,53.6c58.7,0,99-38.5,99-99.7v-22H124.2z"/>
	</g>
</g>
</svg>
