<?xml version="1.0" encoding="utf-8"?>
<!-- Generator: Adobe Illustrator 19.2.1, SVG Export Plug-In . SVG Version: 6.00 Build 0)  -->
<svg version="1.1" id="Layer_1" xmlns="http://www.w3.org/2000/svg" xmlns:xlink="http://www.w3.org/1999/xlink" x="0px" y="0px"
	 viewBox="0 0 232 417" style="enable-background:new 0 0 232 417;" xml:space="preserve">
<style type="text/css">
	.st0{fill-rule:evenodd;clip-rule:evenodd;fill:#F40F0F;}
</style>
<g>
	<g>
		<path class="st0" d="M210.2,160.6c-18.1-32.7-51.6-53.2-93.5-53.2C53,107.3,9.1,155.2,9.1,221.4c0,65.9,43.9,114.1,107.6,114.1
			c0.2,0,0.3,0,0.5,0l37.3-70.2c-8.8,12.3-21.9,19.4-37.8,19.4c-29.9,0-49.3-25.2-49.3-63.4c0-38.2,19.4-63.4,49.3-63.4
			c29.9,0,50,25.2,50,63.4c0,11.6-1.9,22-5.3,30.8L210.2,160.6z"/>
	</g>
</g>
</svg>
