<?xml version="1.0" encoding="utf-8"?>
<!-- Generator: Adobe Illustrator 19.2.1, SVG Export Plug-In . SVG Version: 6.00 Build 0)  -->
<svg version="1.1" id="Layer_1" xmlns="http://www.w3.org/2000/svg" xmlns:xlink="http://www.w3.org/1999/xlink" x="0px" y="0px"
	 viewBox="0 0 231 417" style="enable-background:new 0 0 231 417;" xml:space="preserve">
<style type="text/css">
	.st0{fill-rule:evenodd;clip-rule:evenodd;fill:#F40F0F;}
</style>
<g>
	<g>
		<path class="st0" d="M223.6,221.4c0-66.2-44.3-114.1-108.4-114.1c-0.1,0-0.3,0-0.4,0l-39,73.4c8.6-14.3,22.3-22.7,39.5-22.7
			c29.9,0,50,25.2,50,63.4c0,14.4-2.2,26.3-5.8,36L143,236.9L108,264.3l17.6,22c-3.2,0.7-6.8,1.1-10.4,1.1
			c-29.9,0-49.3-27.7-49.3-65.9c0-13.7,2.5-25.8,7.1-35.6l-51,95.8c17.9,33,51.3,53.9,93.1,53.9c15.1,0,29.9-3.2,42.8-9l17.6,21.6
			l34.9-28.1l-16.2-19.8C212.4,280.1,223.6,252.8,223.6,221.4z"/>
	</g>
</g>
</svg>
