<?xml version="1.0" encoding="utf-8"?>
<!-- Generator: Adobe Illustrator 19.2.1, SVG Export Plug-In . SVG Version: 6.00 Build 0)  -->
<svg version="1.1" id="Layer_1" xmlns="http://www.w3.org/2000/svg" xmlns:xlink="http://www.w3.org/1999/xlink" x="0px" y="0px"
	 viewBox="0 0 231 417" style="enable-background:new 0 0 231 417;" xml:space="preserve">
<style type="text/css">
	.st0{fill-rule:evenodd;clip-rule:evenodd;fill:#F40F0F;}
</style>
<g>
	<g>
		<path class="st0" d="M115.2,107.3c-63.7,0-107.6,47.9-107.6,114.1c0,65.9,43.9,114.1,107.6,114.1c15.1,0,29.9-3.2,42.8-9l0.2,0.3
			l64.4-121.2C216.3,147.7,174.1,107.3,115.2,107.3z M159.5,257.4L143,236.9L108,264.3l17.6,22c-3.2,0.7-6.8,1.1-10.4,1.1
			c-29.9,0-49.3-27.7-49.3-65.9c0-38.2,19.4-63.4,49.3-63.4c29.9,0,50,25.2,50,63.4C165.3,235.8,163.1,247.7,159.5,257.4z"/>
	</g>
</g>
</svg>
