<?xml version="1.0" encoding="utf-8"?>
<!-- Generator: Adobe Illustrator 19.2.1, SVG Export Plug-In . SVG Version: 6.00 Build 0)  -->
<svg version="1.1" id="Layer_1" xmlns="http://www.w3.org/2000/svg" xmlns:xlink="http://www.w3.org/1999/xlink" x="0px" y="0px"
	 viewBox="0 0 195 417" style="enable-background:new 0 0 195 417;" xml:space="preserve">
<style type="text/css">
	.st0{fill-rule:evenodd;clip-rule:evenodd;fill:#F40F0F;}
</style>
<g>
	<g>
		<path class="st0" d="M94.5,153.4c19.1,0,29.2,9.4,33.8,21.6h53.2l2.5-4.6c-7.8-35.9-38-63.1-89.8-63.1c-49,0-85,28.4-85,71.6
			c0,37.4,24.5,54.4,56.9,61.6l42.5,9c14,3.2,20.9,7.9,20.9,18.4c0,13.7-12.2,21.2-29.9,21.2c-18,0-31-7.6-35.6-22.7H3.8
			c7.7,42.3,41.9,67.7,92.4,69.1l64.7-121.7c-8.8-5.8-19.7-10.2-32.5-13.3l-43.2-10.1c-11.5-2.5-18.4-7.9-18.4-17.6
			C66.8,160.6,78,153.4,94.5,153.4z"/>
	</g>
</g>
</svg>
