<?xml version="1.0" encoding="utf-8"?>
<!-- Generator: Adobe Illustrator 19.2.1, SVG Export Plug-In . SVG Version: 6.00 Build 0)  -->
<svg version="1.1" id="Layer_1" xmlns="http://www.w3.org/2000/svg" xmlns:xlink="http://www.w3.org/1999/xlink" x="0px" y="0px"
	 viewBox="0 0 195 417" style="enable-background:new 0 0 195 417;" xml:space="preserve">
<style type="text/css">
	.st0{fill-rule:evenodd;clip-rule:evenodd;fill:#F40F0F;}
</style>
<g>
	<g>
		<path class="st0" d="M94.5,153.4c19.1,0,29.2,9.4,33.8,21.6h56.5c-5.9-36.9-34.7-65.7-85.3-67.6l-29.2,54.9
			C74.9,156.6,83.5,153.4,94.5,153.4z M128.4,200.6l-43.2-10.1c-11.5-2.5-18.4-7.9-18.4-17.6c0-1.9,0.3-3.7,0.8-5.3l-32.5,61.1
			c8.8,5.6,19.4,9.4,31,11.9l42.5,9c14,3.2,20.9,7.9,20.9,18.4c0,13.7-12.2,21.2-29.9,21.2c-18,0-31-7.6-35.6-22.7H15l-7.5,14
			c12.5,35,46.1,55.1,93.1,55.1c48.2,0,86.4-25.9,86.4-71.3C187.1,230.1,166.2,209.6,128.4,200.6z"/>
	</g>
</g>
</svg>
